<svg width="25" height="25" viewBox="0 0 25 25" fill="none" xmlns="http://www.w3.org/2000/svg">
<path d="M17.9687 17.9687H6.81818L4.09391 2.98525C4.06118 2.80524 3.96631 2.64243 3.82584 2.5252C3.68538 2.40796 3.50822 2.34375 3.32526 2.34375H1.5625" stroke="#111112" stroke-width="1.4" stroke-linecap="round" stroke-linejoin="round"/>
<path d="M7.8125 21.875C8.89118 21.875 9.76562 21.0005 9.76562 19.9219C9.76562 18.8432 8.89118 17.9688 7.8125 17.9688C6.73382 17.9688 5.85938 18.8432 5.85938 19.9219C5.85938 21.0005 6.73382 21.875 7.8125 21.875Z" stroke="#111112" stroke-width="1.4" stroke-linecap="round" stroke-linejoin="round"/>
<path d="M17.9687 21.875C19.0474 21.875 19.9219 21.0005 19.9219 19.9219C19.9219 18.8432 19.0474 17.9688 17.9687 17.9688C16.8901 17.9688 16.0156 18.8432 16.0156 19.9219C16.0156 21.0005 16.8901 21.875 17.9687 21.875Z" stroke="#111112" stroke-width="1.4" stroke-linecap="round" stroke-linejoin="round"/>
<path d="M6.10795 14.0625H18.3693C18.7352 14.0625 19.0895 13.9341 19.3704 13.6996C19.6514 13.4651 19.8411 13.1395 19.9066 12.7795L21.0937 6.25H4.6875" stroke="#111112" stroke-width="1.4" stroke-linecap="round" stroke-linejoin="round"/>
</svg>
